:SAMPLES-PER-SECOND 30
:FULLY-SPECIFIED
:DEGREES
434
root  -41.2856 37.8773 -29.0858 -5.18078 -88.4421 46.7227
RightUpLeg  -72.0093 -13.0349 16.6867
RightLeg  35.6891 0.881896 0.415382
RightFoot  -2.67857 0.702413 -9.58294
RightToes  0.00048216 0.542163 -0.142577
Spine  72.2121 -4.43386 6.66725
Spine1  4.70624 1.61475 -6.71985
HEad  -40.2696 -5.20975 0.0862692
LeftShoulder1  4.13173 -24.8874 -6.82091
LeftArm  -96.5774 -67.4193 23.4391
LeftForeArm  20.0058 -25.1907 -4.36463
LeftHand  -0.25398 0.0180481 5.50724
RightShoulder  2.73792 14.3375 7.82931
RightArm  -79.7485 51.8886 -19.2565
RightForeArm  -24.2832 24.0604 6.27612
RightHand  -6.24321 16.7816 -32.3158
LeftUpLeg  -67.982 12.6167 -8.85888
LeftLeg  36.059 1.53805 1.56927
LeftFoot  -5.86377 0.0955232 -1.22366
LeftToes  1.06243e-005 4.65856e-005 -8.18503e-006
435
root  -41.3212 37.9018 -29.0176 -19.6388 -88.5966 60.858
RightUpLeg  -71.6521 -13.0432 16.2465
RightLeg  35.7544 0.829159 0.375635
RightFoot  -2.68609 0.691304 -9.38453
RightToes  0.00048216 0.542163 -0.142577
Spine  72.0389 -4.54273 6.75431
Spine1  5.06752 1.5449 -6.68982
HEad  -40.1005 -5.13446 0.0360168
LeftShoulder1  4.3133 -24.9938 -7.46785
LeftArm  -96.0636 -67.8639 22.5749
LeftForeArm  19.6209 -26.7922 -4.70685
LeftHand  -0.25398 0.0180481 5.50724
RightShoulder  2.4239 13.296 6.81586
RightArm  -81.1394 53.897 -17.6392
RightForeArm  -23.6736 23.8917 6.20336
RightHand  -6.61454 17.2757 -33.3826
LeftUpLeg  -67.4904 12.4988 -8.8163
LeftLeg  36.1249 1.91602 1.86828
LeftFoot  -5.90432 0.101416 -1.32455
LeftToes  1.06243e-005 4.65856e-005 -8.18503e-006
436
root  -41.3183 37.9016 -28.9578 -33.3836 -88.7072 74.3412
RightUpLeg  -71.3671 -12.8876 15.8211
RightLeg  35.7818 0.676769 0.258174
RightFoot  -2.67387 0.679041 -9.16731
RightToes  0.00048216 0.542163 -0.142577
Spine  71.7758 -4.61401 6.85797
Spine1  5.35918 1.58929 -6.82377
HEad  -39.6997 -5.3606 0.123958
LeftShoulder1  4.40664 -25.0847 -7.77583
LeftArm  -97.2246 -68.4181 22.997
LeftForeArm  18.5844 -26.5175 -4.70454
LeftHand  -0.25398 0.0180481 5.50724
RightShoulder  2.32766 13.007 6.44295
RightArm  -83.1028 54.9049 -17.2729
RightForeArm  -21.7763 23.1289 5.91802
RightHand  -6.44031 16.9857 -32.9507
LeftUpLeg  -67.2054 12.4461 -8.77637
LeftLeg  36.2691 2.26468 2.15088
LeftFoot  -6.05983 0.109347 -1.45271
LeftToes  1.06243e-005 4.65856e-005 -8.18503e-006
437
root  -41.2675 37.8774 -28.9025 -48.6507 -88.8103 89.4077
RightUpLeg  -71.2498 -12.5983 15.4677
RightLeg  35.8677 0.492209 0.116154
RightFoot  -2.61916 0.682588 -9.15387
RightToes  0.00048216 0.542163 -0.142577
Spine  71.4445 -4.54962 6.9768
Spine1  5.56573 1.75681 -6.869
HEad  -39.3935 -5.53386 0.118052
LeftShoulder1  4.48302 -25.1397 -8.03862
LeftArm  -98.6465 -69.0477 25.0555
LeftForeArm  18.0782 -24.8975 -4.38843
LeftHand  -0.25398 0.0180481 5.50724
RightShoulder  2.39232 13.1386 6.75236
RightArm  -84.2952 55.2693 -18.4017
RightForeArm  -20.6274 22.0992 5.50989
RightHand  -6.26774 16.7709 -32.4195
LeftUpLeg  -67.1499 12.4857 -8.76145
LeftLeg  36.5504 2.40882 2.28451
LeftFoot  -6.31215 0.116913 -1.57075
LeftToes  1.06243e-005 4.65856e-005 -8.18503e-006
438
root  -41.1666 37.8442 -28.8457 -63.1635 -88.797 103.648
RightUpLeg  -71.273 -12.4204 15.1999
RightLeg  36.1158 0.36093 0.015469
RightFoot  -2.46856 0.699656 -9.20417
RightToes  0.00048216 0.542163 -0.142577
Spine  71.1882 -4.52598 7.12935
Spine1  5.74909 1.89163 -6.90069
HEad  -39.3552 -5.47302 -0.0954185
LeftShoulder1  4.49142 -24.969 -8.17814
LeftArm  -100.12 -69.7272 28.288
LeftForeArm  17.2705 -22.6628 -3.7766
LeftHand  -0.25398 0.0180481 5.50724
RightShoulder  2.47365 13.1338 7.30668
RightArm  -84.5368 55.8894 -20.7797
RightForeArm  -21.2913 19.9582 4.61062
RightHand  -6.25575 16.9933 -32.06
LeftUpLeg  -67.1324 12.4319 -8.73154
LeftLeg  36.8922 2.61245 2.47335
LeftFoot  -6.37396 0.112799 -1.50273
LeftToes  1.06243e-005 4.65856e-005 -8.18503e-006
